<?xml version="1.0" encoding="UTF-8"?><svg id="a" xmlns="http://www.w3.org/2000/svg" viewBox="0 0 304.57 245.83"><defs><style>.b{fill:#28b3a3;}</style></defs><g><path d="M105.39,154.27v-42.16h-9.28v-6.25h9.28v-15.67h6.26v15.67h9.28v6.25h-9.28v42.16h-6.26Z"/><path d="M130.66,111.89c4.93-5.06,10.75-7.57,17.45-7.57,7.06,0,13.06,2.46,18.07,7.35s7.5,10.83,7.5,17.82-2.35,13.25-7.1,18.31c-4.84,5.24-10.84,7.83-17.98,7.83s-13.1-2.46-17.99-7.44-7.33-10.96-7.33-18h43.83v-.26c.05-5.63-1.73-10.3-5.28-14.04-3.55-3.74-8.17-5.59-13.81-5.59-4.97,0-9.24,1.89-12.79,5.68-1.51,1.58-2.71,3.35-3.6,5.24h-6.88c1.2-3.43,3.2-6.56,5.91-9.33Zm35.84,23.55h-36.01c.84,3.26,2.4,6.12,4.75,8.58,3.6,3.79,8.04,5.68,13.37,5.68s9.63-1.89,13.19-5.68c2.35-2.46,3.91-5.32,4.71-8.58Z"/><path d="M187.07,90.19v23.81c5.15-6.12,11.54-9.2,19.18-9.2,6.97,0,12.83,2.46,17.59,7.44,4.66,4.89,6.97,10.78,6.97,17.78s-2.44,13.38-7.28,18.26c-4.84,4.84-10.92,7.26-18.29,7.26s-13.23-2.86-18.16-8.58v7.31h-6.17V90.19h6.17Zm0,40.36c0,5.02,1.78,9.46,5.28,13.29,3.64,3.96,7.95,5.94,12.97,5.94,5.46,0,10.03-1.98,13.63-5.98,3.51-3.87,5.28-8.54,5.28-14.04s-1.78-9.81-5.37-13.55-8.04-5.63-13.32-5.63-9.81,2.02-13.37,6.07c-3.42,3.87-5.11,8.49-5.11,13.91Z"/><path d="M244.72,100.18h-6.26v-9.99h6.26v9.99Zm-6.26,54.09v-48.41h6.26v48.41h-6.26Z"/><path d="M260.84,90.19v23.81c5.15-6.12,11.54-9.2,19.18-9.2,6.97,0,12.83,2.46,17.59,7.44,4.66,4.89,6.97,10.78,6.97,17.78s-2.44,13.38-7.28,18.26c-4.84,4.84-10.92,7.26-18.29,7.26s-13.23-2.86-18.16-8.58v7.31h-6.17V90.19h6.17Zm0,40.36c0,5.02,1.78,9.46,5.28,13.29,3.64,3.96,7.95,5.94,12.97,5.94,5.46,0,10.03-1.98,13.63-5.98,3.51-3.87,5.28-8.54,5.28-14.04s-1.78-9.81-5.37-13.55-8.04-5.63-13.32-5.63-9.81,2.02-13.37,6.07c-3.42,3.87-5.11,8.49-5.11,13.91Z"/></g><path class="b" d="M182.68,18.15c-41.73-11.46-77.94-1.65-109.19,27.01-29.03,26.62-39.32,73.68-24.93,109.88,15.33,38.58,52.97,64.08,94.29,63.89,27.89-.13,47.49-6.56,75.92-24.9-40.28,54.32-103.96,63.34-149.77,38.98C-9.33,191.37-18.86,100.11,29.72,41.06,62.36,1.39,119.78-11.27,167.76,10.73c5.05,2.31,9.95,4.94,14.92,7.42Z"/></svg>